# xmcd
#
# Track frame offsets: 
#        182
#        72707
#        118232
#        161432
#        239282
#        263007
#
# Disc length: 4107 seconds
#
# Revision: 4
# Processed by: cddbd v1.5.2PL0 Copyright (c) Steve Scherf et al.
# Submitted via: ExactAudioCopy v0.99pb5
#
DISCID=52100906
DTITLE=Maurizio Pollini, Claudio Abbado, Berliner Philharmoniker - Bee
DTITLE=thoven: The Piano Concertos [CD 2)
DYEAR=1994
DGENRE=Classical
TTITLE0=Piano Concerto No.3 in C minor, Op.37: 1. Allegro con brio
TTITLE1=Piano Concerto No.3 in C minor, Op.37: 2. Largo
TTITLE2=Piano Concerto No.3 in C minor, Op.37: 3. Rondo. Allegro
TTITLE3=Piano Concerto No.4 in G, Op.58: 1. Allegro moderato
TTITLE4=Piano Concerto No.4 in G, Op.58: 2. Andante con moto
TTITLE5=Piano Concerto No.4 in G, Op.58: 3. Rondo. Vivace
EXTD=Ripped and uploaded by *Berthold de Lacu* \n      \n      F
EXTD=or more visit:\n      http://domibus-eternis.blogspot.com/\n     
EXTD=http://classicallibrary.blogspot.com/
EXTT0=
EXTT1=
EXTT2=
EXTT3=
EXTT4=
EXTT5=
PLAYORDER=
